<svg width="20" height="20" viewBox="0 0 20 20" fill="none" xmlns="http://www.w3.org/2000/svg">
<g clip-path="url(#clip0_141_3823)">
<path fill-rule="evenodd" clip-rule="evenodd" d="M8.23251 2.87509C8.70135 2.40624 9.33724 2.14286 10.0003 2.14286C10.6633 2.14286 11.2992 2.40624 11.7681 2.87509C12.0643 3.17133 12.2785 3.53424 12.3961 3.92857H7.60449C7.72206 3.53424 7.93628 3.17133 8.23251 2.87509ZM5.41268 3.92857C5.56321 2.96173 6.01675 2.06039 6.71728 1.35986C7.58799 0.489157 8.76892 0 10.0003 0C11.2316 0 12.4126 0.489157 13.2833 1.35986C13.9838 2.06039 14.4374 2.96173 14.5879 3.92857H18.5717C19.1634 3.92857 19.6431 4.40827 19.6431 5C19.6431 5.59174 19.1634 6.07143 18.5717 6.07143H17.1431V17.8571C17.1431 18.4254 16.9174 18.9706 16.5156 19.3724C16.1137 19.7743 15.5686 20 15.0003 20H5.00028C4.43195 20 3.88691 19.7743 3.48505 19.3724C3.08319 18.9706 2.85742 18.4254 2.85742 17.8571V6.07143H1.42885C0.837116 6.07143 0.357422 5.59174 0.357422 5C0.357422 4.40827 0.837116 3.92857 1.42885 3.92857H5.41268ZM7.14314 8.39494C7.63625 8.39494 8.03599 8.7947 8.03599 9.2878V15.0043C8.03599 15.4973 7.63625 15.8971 7.14314 15.8971C6.65002 15.8971 6.25028 15.4973 6.25028 15.0043V9.2878C6.25028 8.7947 6.65002 8.39494 7.14314 8.39494ZM13.7503 9.2878C13.7503 8.7947 13.3505 8.39494 12.8574 8.39494C12.3643 8.39494 11.9646 8.7947 11.9646 9.2878V15.0043C11.9646 15.4973 12.3643 15.8971 12.8574 15.8971C13.3505 15.8971 13.7503 15.4973 13.7503 15.0043V9.2878Z" fill="white"/>
</g>
<defs>
<clipPath id="clip0_141_3823">
<rect width="20" height="20" fill="white"/>
</clipPath>
</defs>
</svg>
