<svg xmlns="http://www.w3.org/2000/svg" fill="none" viewBox="0 0 20 20" id="Download-Computer--Streamline-Core" height="20" width="20">
  <desc>
    Download Computer Streamline Icon: https://streamlinehq.com
  </desc>
  <g id="download-computer--action-actions-computer-desktop-device-display-download-monitor-screen">
    <path id="Union" fill="#ffffff" fill-rule="evenodd" d="M13.78057142857143 7.229857142857143 10.505 10.50542857142857c-0.27894285714285716 0.27894285714285716 -0.7312 0.27894285714285716 -1.010142857142857 0L6.219285714285715 7.229857142857143c-0.4499714285714286 -0.4499714285714286 -0.13127142857142857 -1.219357142857143 0.5050857142857142 -1.219357142857143h1.8469857142857145l0 -4.581228571428571c0 -0.7889800000000001 0.6396000000000001 -1.428573884285714 1.4285714285714286 -1.428573884285714 0.7889857142857142 0 1.4285714285714286 0.6395938842857143 1.4285714285714286 1.428573884285714l0 4.581228571428571h1.8469857142857145c0.6363714285714286 0 0.9550571428571429 0.7693857142857143 0.5050857142857142 1.219357142857143ZM2.9450285714285713 4.1573714285714285h1.3392857142857144c0.7889857142857142 0 1.4285714285714286 -0.6396000000000001 1.4285714285714286 -1.4285714285714286 0 -0.7889857142857142 -0.6395857142857143 -1.4285771428571428 -1.4285714285714286 -1.4285771428571428h-2.115285714285714c-1.1493814285714286 0 -2.081138 0.9317628571428571 -2.081138 2.0811342857142856v10.441028571428571c0 1.1493285714285715 0.9317565714285714 2.0811857142857146 2.081138 2.0811857142857146h5.595985714285715l-0.6967 1.9465714285714286H5.714285714285714c-0.5917285714285715 0 -1.0714285714285714 0.4797142857142857 -1.0714285714285714 1.0714285714285714s0.47969999999999996 1.0714285714285714 1.0714285714285714 1.0714285714285714h8.571428571428571c0.5917142857142857 0 1.0714285714285714 -0.4797142857142857 1.0714285714285714 -1.0714285714285714s-0.4797142857142857 -1.0714285714285714 -1.0714285714285714 -1.0714285714285714h-1.3541571428571428l-0.6967 -1.9465714285714286h5.595714285714285c1.1494285714285715 0 2.0811428571428574 -0.9318571428571428 2.0811428571428574 -2.0811857142857146V3.381357142857143c0 -1.1493714285714287 -0.9317142857142857 -2.0811342857142856 -2.0811428571428574 -2.0811342857142856H15.712857142857144c-0.789 0 -1.4285428571428571 0.6395914285714286 -1.4285428571428571 1.4285771428571428 0 0.7889714285714285 0.6395428571428572 1.4285714285714286 1.4285428571428571 1.4285714285714286h1.3417142857142859v8.889H2.9450285714285713v-8.889Z" clip-rule="evenodd" stroke-width="1.4286"></path>
  </g>
</svg>